<svg width="48" height="48" viewBox="0 0 48 48" fill="none" xmlns="http://www.w3.org/2000/svg">
<g clip-path="url(#clip0_59_457)">
<path d="M40 24C40 15.18 32.82 8 24 8C15.18 8 8 15.18 8 24C8 32.82 15.18 40 24 40C32.82 40 40 32.82 40 24ZM44 24C44 35.04 35.04 44 24 44C12.96 44 4 35.04 4 24C4 12.96 12.96 4 24 4C35.04 4 44 12.96 44 24ZM24 22L30 22C31.1 22 32 22.9 32 24C32 25.1 31.1 26 30 26L24 26L24 29.58C24 30.48 22.92 30.92 22.3 30.28L16.72 24.7C16.32 24.3 16.32 23.68 16.72 23.28L22.3 17.7C22.92 17.08 24 17.52 24 18.42L24 22Z" fill="white" fill-opacity="0.5"/>
</g>
<defs>
<clipPath id="clip0_59_457">
<rect width="48" height="48" fill="white" transform="matrix(4.37114e-08 1 1 -4.37114e-08 0 0)"/>
</clipPath>
</defs>
</svg>
